<svg width="144" height="40" viewBox="0 0 144 40" fill="none" xmlns="http://www.w3.org/2000/svg">
<g clip-path="url(#clip0_1_489)">
<path d="M21.4225 21.0416V28.3089H18.2106V21.0416V21.0172H18.1862H15.5612V18.0498H18.1862H18.2106V18.0254V15.7265C18.2106 14.4238 18.5986 13.4156 19.2804 12.7331C19.9622 12.0506 20.9408 11.691 22.1276 11.691C22.6971 11.691 23.28 11.7419 23.7207 11.7928C23.941 11.8182 24.1257 11.8436 24.2553 11.8627C24.3201 11.8723 24.3711 11.8802 24.4058 11.8858L24.4388 11.8911V14.414H23.1475C22.4941 14.414 22.0615 14.617 21.7927 14.9278C21.5244 15.238 21.4225 15.6518 21.4225 16.068V18.0254V18.0498H21.447H24.3127L23.8573 21.0172H21.447H21.4225V21.0416Z" fill="#697687" stroke="#697687" stroke-width="0.0488281"/>
</g>
<rect x="0.5" y="0.5" width="39" height="39" rx="19.5" stroke="#697687"/>
<path d="M79.4313 23.1896C79.3728 24.3582 79.1058 25.3934 78.253 26.2463C77.4001 27.1024 76.3649 27.3693 75.1963 27.4246L79.4313 23.1896ZM79.4313 23.1896C79.4997 21.9852 79.4997 18.3784 79.4313 17.174V23.1896ZM79.407 17.1751L79.407 17.1754C79.4753 18.3789 79.4753 21.9847 79.407 23.1882L79.407 23.1884C79.3485 24.354 79.0826 25.3821 78.2357 26.229L78.2357 26.229C77.3888 27.0791 76.3607 27.3451 75.1952 27.4003L75.1949 27.4003C73.9914 27.4686 70.3823 27.4686 69.1788 27.4003L69.1787 27.4003C68.0131 27.3418 66.9882 27.0759 66.138 26.229C65.288 25.3821 65.022 24.354 64.9668 23.1885L64.9668 23.1882C64.8985 21.9847 64.8985 18.3756 64.9668 17.1721L64.9668 17.172C65.0252 16.0063 65.288 14.9782 66.138 14.1314C66.9882 13.2845 68.0164 13.0185 69.1786 12.9634L69.1788 12.9633C70.3823 12.895 73.9914 12.895 75.1949 12.9633L75.1951 12.9633C76.3607 13.0218 77.3888 13.2878 78.2357 14.1346L78.2357 14.1346C79.0858 14.9815 79.3518 16.0096 79.407 17.1751ZM76.4976 25.8913L76.4977 25.8913C77.1452 25.6317 77.6416 25.1352 77.898 24.491C78.0903 24.0079 78.1634 23.194 78.1891 22.3717C78.2074 21.7825 78.2014 21.1863 78.1965 20.7007C78.1945 20.5078 78.1927 20.3324 78.1927 20.1818C78.1927 20.0312 78.1945 19.8558 78.1965 19.663C78.2014 19.1777 78.2074 18.582 78.1891 17.9931C78.1634 17.1713 78.0903 16.3574 77.8981 15.8727L77.898 15.8726C77.6384 15.2251 77.1419 14.7287 76.4977 14.4723L76.4976 14.4722C76.0146 14.2817 75.2007 14.2085 74.3784 14.1825C73.7848 14.1637 73.1841 14.1694 72.6965 14.1741C72.5079 14.1759 72.3363 14.1776 72.1885 14.1776C72.0379 14.1776 71.8625 14.1758 71.6697 14.1738C71.1844 14.1689 70.5887 14.1629 69.9998 14.1812C69.178 14.2069 68.3641 14.28 67.8794 14.4723L67.8793 14.4723C67.2318 14.7319 66.7354 15.2284 66.479 15.8726L66.4789 15.8727C66.2884 16.3557 66.2152 17.1696 66.1892 17.9919C66.1704 18.5855 66.1761 19.1863 66.1808 19.6738C66.1826 19.8624 66.1843 20.0341 66.1843 20.1818C66.1843 20.3324 66.1825 20.5078 66.1805 20.7007C66.1756 21.1859 66.1696 21.7816 66.1879 22.3705C66.2136 23.1924 66.2867 24.0063 66.479 24.4909L66.479 24.491C66.7386 25.1385 67.2351 25.6349 67.8793 25.8913L67.8794 25.8914C68.3624 26.0819 69.1763 26.1551 69.9986 26.1811C70.5922 26.1999 71.193 26.1942 71.6805 26.1895C71.8691 26.1877 72.0408 26.186 72.1885 26.186C72.3391 26.186 72.5145 26.1878 72.7074 26.1898C73.1926 26.1947 73.7883 26.2007 74.3772 26.1824C75.1991 26.1567 76.013 26.0836 76.4976 25.8913ZM68.4727 20.1818C68.4727 18.125 70.1317 16.466 72.1885 16.466C74.2453 16.466 75.9043 18.125 75.9043 20.1818C75.9043 22.2386 74.2453 23.8976 72.1885 23.8976C70.1317 23.8976 68.4727 22.2386 68.4727 20.1818ZM69.7325 20.1818C69.7325 21.5365 70.8372 22.6379 72.1885 22.6379C73.5399 22.6379 74.6446 21.5365 74.6446 20.1818C74.6446 18.8272 73.5431 17.7257 72.1885 17.7257C70.8339 17.7257 69.7325 18.8272 69.7325 20.1818ZM76.9297 16.2886C76.9297 16.7601 76.5501 17.1366 76.0817 17.1366C75.6103 17.1366 75.2338 16.7569 75.2338 16.2886C75.2338 15.8203 75.6135 15.4406 76.0817 15.4406C76.55 15.4406 76.9297 15.8203 76.9297 16.2886Z" fill="#697687" stroke="#697687" stroke-width="0.0488281"/>
<rect x="52.5" y="0.5" width="39" height="39" rx="19.5" stroke="#697687"/>
<path d="M120.463 28.3341C120.387 27.6091 120.319 26.5153 120.501 25.7344C120.585 25.3758 120.853 24.2373 121.1 23.1885L121.429 21.7912L121.534 21.3468L121.563 21.2238L121.571 21.1915L121.571 21.1889L121.563 21.1711C121.555 21.1542 121.545 21.1294 121.532 21.097C121.506 21.0323 121.471 20.9378 121.437 20.8177C121.368 20.5775 121.299 20.2352 121.299 19.8259C121.299 18.544 122.043 17.5764 122.983 17.5764C123.382 17.5764 123.679 17.7261 123.876 17.9669C124.073 18.2071 124.168 18.5355 124.168 18.8908C124.168 19.2884 124.042 19.7823 123.885 20.3106C123.841 20.4584 123.795 20.6089 123.748 20.7609C123.627 21.1539 123.503 21.557 123.41 21.9495L123.41 21.9495C123.196 22.8454 123.858 23.5753 124.743 23.5753C125.548 23.5753 126.262 23.1509 126.775 22.4164C127.289 21.6816 127.601 20.6371 127.601 19.4008C127.601 18.3091 127.209 17.3832 126.538 16.7302C125.867 16.0772 124.916 15.6957 123.796 15.6957C121.201 15.6957 119.681 17.6391 119.681 19.6485C119.681 20.4307 119.982 21.2678 120.352 21.7251C120.352 21.7251 120.352 21.7252 120.352 21.7252L120.333 21.7406C120.407 21.8293 120.418 21.9106 120.396 22.003L120.463 28.3341ZM120.463 28.3341C117.084 26.9937 114.691 23.6934 114.691 19.8333C114.691 14.7829 118.783 10.691 123.833 10.691C128.884 10.691 132.976 14.7829 132.976 19.8333C132.976 24.8837 128.884 28.9755 123.833 28.9755C122.901 28.9755 122.004 28.8351 121.157 28.5756L120.463 28.3341Z" fill="#697687" stroke="#697687" stroke-width="0.0488281"/>
<rect x="104.5" y="0.5" width="39" height="39" rx="19.5" stroke="#697687"/>
<defs>
<clipPath id="clip0_1_489">
<rect width="16.6667" height="16.6667" fill="white" transform="translate(11.6667 11.6666)"/>
</clipPath>
</defs>
</svg>
