<svg width="50" height="50" viewBox="0 0 50 50" fill="none" xmlns="http://www.w3.org/2000/svg">
<g id="Group 18">
<rect id="Rectangle 11" width="50" height="50" rx="5" fill="#3685FB"/>
<path id="Vector" d="M28.5657 32.551C28.8439 32.2667 29 31.882 29 31.481C29 31.08 28.8439 30.6953 28.5657 30.4109L23.2782 24.9621L28.5657 19.5891C28.8439 19.3047 29 18.92 29 18.519C29 18.118 28.8439 17.7333 28.5657 17.449C28.4268 17.3067 28.2616 17.1938 28.0796 17.1167C27.8976 17.0397 27.7024 17 27.5052 17C27.308 17 27.1128 17.0397 26.9308 17.1167C26.7488 17.1938 26.5836 17.3067 26.4447 17.449L20.1117 23.8844C19.9717 24.0255 19.8606 24.1934 19.7848 24.3783C19.7089 24.5633 19.6699 24.7617 19.6699 24.9621C19.6699 25.1624 19.7089 25.3608 19.7848 25.5458C19.8606 25.7307 19.9717 25.8986 20.1117 26.0397L26.4447 32.551C26.5836 32.6933 26.7488 32.8062 26.9308 32.8833C27.1128 32.9603 27.308 33 27.5052 33C27.7024 33 27.8976 32.9603 28.0796 32.8833C28.2616 32.8062 28.4268 32.6933 28.5657 32.551Z" fill="#FCFCFC"/>
</g>
</svg>
